<svg width="152" height="41" viewBox="0 0 152 41" fill="none" xmlns="http://www.w3.org/2000/svg">
<path d="M34.2785 28.0159V27.4744C34.6858 27.4559 34.9866 27.4188 35.181 27.3633C35.3754 27.2985 35.5003 27.1874 35.5559 27.0301C35.6207 26.8635 35.6531 26.6135 35.6531 26.2803V19.9213C35.6531 19.588 35.6207 19.3428 35.5559 19.1854C35.5003 19.0188 35.3754 18.9031 35.181 18.8383C34.9866 18.7735 34.6858 18.7365 34.2785 18.7272V18.1857C34.5192 18.195 34.8385 18.2042 35.2365 18.2135C35.6438 18.2227 36.0927 18.2274 36.5833 18.2274C37.1294 18.2274 37.6108 18.2227 38.0273 18.2135C38.4531 18.2042 38.7863 18.195 39.027 18.1857V18.7272C38.5734 18.7365 38.2356 18.7735 38.0134 18.8383C37.8005 18.9031 37.6571 19.0188 37.583 19.1854C37.5182 19.3428 37.4858 19.588 37.4858 19.9213V26.2803C37.4858 26.6135 37.5182 26.8635 37.583 27.0301C37.6571 27.1874 37.8005 27.2985 38.0134 27.3633C38.2356 27.4188 38.5734 27.4559 39.027 27.4744V28.0159C38.7863 27.9974 38.4577 27.9881 38.0412 27.9881C37.6247 27.9788 37.1387 27.9742 36.5833 27.9742C36.0927 27.9742 35.6438 27.9788 35.2365 27.9881C34.8385 27.9881 34.5192 27.9974 34.2785 28.0159ZM27.8917 28.0159V27.4744C28.3453 27.4559 28.6785 27.4188 28.8914 27.3633C29.1135 27.2985 29.257 27.1874 29.3218 27.0301C29.3958 26.8635 29.4329 26.6135 29.4329 26.2803V19.9213C29.4329 19.588 29.3958 19.3428 29.3218 19.1854C29.257 19.0188 29.1135 18.9031 28.8914 18.8383C28.6785 18.7735 28.3453 18.7365 27.8917 18.7272V18.1857C28.1416 18.195 28.4795 18.2042 28.9053 18.2135C29.331 18.2227 29.8216 18.2274 30.377 18.2274C30.8583 18.2274 31.298 18.2227 31.696 18.2135C32.094 18.2042 32.4088 18.195 32.6402 18.1857V18.7272C32.2329 18.7365 31.9321 18.7735 31.7377 18.8383C31.5433 18.9031 31.4137 19.0188 31.3489 19.1854C31.2934 19.3428 31.2656 19.588 31.2656 19.9213V26.2803C31.2656 26.6043 31.2934 26.8496 31.3489 27.0162C31.4137 27.1828 31.5433 27.2985 31.7377 27.3633C31.9413 27.4188 32.2421 27.4559 32.6402 27.4744V28.0159C32.3995 27.9974 32.0802 27.9881 31.6821 27.9881C31.2841 27.9788 30.8444 27.9742 30.3631 27.9742C29.8077 27.9742 29.3172 27.9788 28.8914 27.9881C28.4748 27.9881 28.1416 27.9974 27.8917 28.0159ZM30.5436 23.3368V22.8092H36.3751V23.3368H30.5436ZM41.9061 28.2103C41.1841 28.2103 40.6287 27.9881 40.24 27.5438C39.8604 27.0902 39.6707 26.4469 39.6707 25.6139V22.6148C39.6707 22.1705 39.5642 21.8605 39.3514 21.6846C39.1385 21.4995 38.7728 21.4023 38.2545 21.393V20.8515C38.4304 20.8608 38.6155 20.87 38.8099 20.8793C39.0135 20.8885 39.2218 20.8932 39.4347 20.8932C39.7864 20.8932 40.1196 20.8793 40.4343 20.8515C40.7583 20.8145 41.0684 20.7636 41.3646 20.6988V25.7944C41.3646 26.322 41.4664 26.72 41.67 26.9884C41.8737 27.2476 42.1791 27.3772 42.5864 27.3772C42.9104 27.3772 43.2112 27.2846 43.4889 27.0995C43.7666 26.9144 44.0073 26.6413 44.2109 26.2803L44.1831 26.8912C43.9702 27.3078 43.6648 27.6317 43.2668 27.8631C42.8687 28.0945 42.4152 28.2103 41.9061 28.2103ZM44.1276 28.1686V22.601C44.1276 22.1659 44.0396 21.8605 43.8638 21.6846C43.6879 21.4995 43.3778 21.4023 42.9335 21.393V20.8515C43.1001 20.8608 43.2714 20.87 43.4472 20.8793C43.6231 20.8885 43.8082 20.8932 44.0026 20.8932C44.3451 20.8932 44.6644 20.8793 44.9606 20.8515C45.2661 20.8145 45.553 20.7636 45.8215 20.6988V26.2526C45.8215 26.6876 45.9279 26.9977 46.1408 27.1828C46.3537 27.3679 46.7147 27.4651 47.2238 27.4744V28.0159C47.0479 27.9974 46.8628 27.9881 46.6684 27.9881C46.474 27.9788 46.275 27.9742 46.0714 27.9742C45.7104 27.9742 45.3679 27.9881 45.044 28.0159C44.7292 28.0529 44.4238 28.1038 44.1276 28.1686ZM56.0211 28.0159V27.4744C56.3636 27.4651 56.5996 27.3911 56.7292 27.2522C56.8588 27.1041 56.9236 26.845 56.9236 26.4747V23.0869C56.9236 22.5593 56.8218 22.1613 56.6182 21.8929C56.4238 21.6244 56.1322 21.4902 55.7434 21.4902C55.4102 21.4902 55.0909 21.592 54.7854 21.7957C54.4892 21.9993 54.23 22.3279 54.0079 22.7815L53.9385 22.2955C54.1884 21.7216 54.5355 21.3051 54.9798 21.0459C55.4241 20.7867 55.9054 20.6571 56.4238 20.6571C57.1272 20.6571 57.6641 20.8793 58.0344 21.3236C58.4139 21.7679 58.6036 22.4066 58.6036 23.2396V26.4747C58.6036 26.845 58.7054 27.1041 58.9091 27.2522C59.122 27.3911 59.4922 27.4651 60.0198 27.4744V28.0159C59.881 28.0066 59.6866 28.002 59.4367 28.002C59.196 27.9927 58.9322 27.9835 58.6453 27.9742C58.3583 27.965 58.076 27.9603 57.7983 27.9603C57.4558 27.9603 57.118 27.9696 56.7848 27.9881C56.4515 27.9974 56.197 28.0066 56.0211 28.0159ZM46.6769 28.0159V27.4744C47.2045 27.4651 47.5702 27.3911 47.7738 27.2522C47.9774 27.1041 48.0793 26.845 48.0793 26.4747V22.6148C48.0793 22.1705 47.9728 21.8605 47.7599 21.6846C47.5563 21.4995 47.1953 21.4023 46.6769 21.393V20.8515C46.8713 20.8608 47.0657 20.87 47.2601 20.8793C47.4545 20.8885 47.6535 20.8932 47.8571 20.8932C48.2181 20.8932 48.556 20.8793 48.8707 20.8515C49.1946 20.8145 49.4955 20.7636 49.7732 20.6988V26.4747C49.7732 26.845 49.8379 27.1041 49.9675 27.2522C50.0971 27.3911 50.3285 27.4651 50.6618 27.4744V28.0159C50.4674 28.0066 50.2128 27.9974 49.8981 27.9881C49.5927 27.9696 49.2687 27.9603 48.9262 27.9603C48.5374 27.9603 48.1302 27.9696 47.7044 27.9881C47.2878 27.9974 46.9454 28.0066 46.6769 28.0159ZM51.6059 28.0159V27.4744C51.9484 27.4651 52.1798 27.3911 52.3001 27.2522C52.4297 27.1041 52.4945 26.845 52.4945 26.4747V23.0869C52.4945 22.5593 52.3973 22.1613 52.2029 21.8929C52.0085 21.6244 51.717 21.4902 51.3282 21.4902C51.0042 21.4902 50.7034 21.5828 50.4257 21.7679C50.148 21.953 49.9074 22.2261 49.7037 22.5871V21.99C49.9259 21.5643 50.2406 21.2357 50.6479 21.0043C51.0551 20.7728 51.5133 20.6571 52.0224 20.6571C52.7166 20.6571 53.2489 20.8793 53.6191 21.3236C53.9986 21.7586 54.1884 22.3881 54.1884 23.2119V26.4747C54.1884 26.845 54.2532 27.1041 54.3828 27.2522C54.5124 27.3911 54.7484 27.4651 55.0909 27.4744V28.0159C54.9335 28.0066 54.6882 27.9974 54.355 27.9881C54.0218 27.9696 53.6932 27.9603 53.3692 27.9603C53.036 27.9603 52.7028 27.9696 52.3695 27.9881C52.0363 27.9974 51.7818 28.0066 51.6059 28.0159ZM68.7164 28.0159V27.4744C69.0589 27.4651 69.2949 27.3911 69.4245 27.2522C69.5541 27.1041 69.6189 26.845 69.6189 26.4747V23.0869C69.6189 22.5593 69.517 22.1613 69.3134 21.8929C69.119 21.6244 68.8275 21.4902 68.4387 21.4902C68.1055 21.4902 67.7861 21.592 67.4807 21.7957C67.1845 21.9993 66.9253 22.3279 66.7031 22.7815L66.6337 22.2955C66.8836 21.7216 67.2308 21.3051 67.6751 21.0459C68.1194 20.7867 68.6007 20.6571 69.119 20.6571C69.8225 20.6571 70.3594 20.8793 70.7296 21.3236C71.1091 21.7679 71.2989 22.4066 71.2989 23.2396V26.4747C71.2989 26.845 71.4007 27.1041 71.6043 27.2522C71.8172 27.3911 72.1875 27.4651 72.7151 27.4744V28.0159C72.5762 28.0066 72.3819 28.002 72.1319 28.002C71.8913 27.9927 71.6275 27.9835 71.3405 27.9742C71.0536 27.965 70.7713 27.9603 70.4936 27.9603C70.1511 27.9603 69.8132 27.9696 69.48 27.9881C69.1468 27.9974 68.8923 28.0066 68.7164 28.0159ZM59.3722 28.0159V27.4744C59.8998 27.4651 60.2654 27.3911 60.4691 27.2522C60.6727 27.1041 60.7745 26.845 60.7745 26.4747V22.6148C60.7745 22.1705 60.6681 21.8605 60.4552 21.6846C60.2515 21.4995 59.8905 21.4023 59.3722 21.393V20.8515C59.5666 20.8608 59.761 20.87 59.9553 20.8793C60.1497 20.8885 60.3487 20.8932 60.5524 20.8932C60.9134 20.8932 61.2512 20.8793 61.5659 20.8515C61.8899 20.8145 62.1907 20.7636 62.4684 20.6988V26.4747C62.4684 26.845 62.5332 27.1041 62.6628 27.2522C62.7924 27.3911 63.0238 27.4651 63.357 27.4744V28.0159C63.1626 28.0066 62.9081 27.9974 62.5934 27.9881C62.2879 27.9696 61.9639 27.9603 61.6215 27.9603C61.2327 27.9603 60.8254 27.9696 60.3996 27.9881C59.9831 27.9974 59.6406 28.0066 59.3722 28.0159ZM64.3011 28.0159V27.4744C64.6436 27.4651 64.875 27.3911 64.9954 27.2522C65.125 27.1041 65.1897 26.845 65.1897 26.4747V23.0869C65.1897 22.5593 65.0926 22.1613 64.8982 21.8929C64.7038 21.6244 64.4122 21.4902 64.0235 21.4902C63.6995 21.4902 63.3987 21.5828 63.121 21.7679C62.8433 21.953 62.6026 22.2261 62.399 22.5871V21.99C62.6211 21.5643 62.9358 21.2357 63.3431 21.0043C63.7504 20.7728 64.2086 20.6571 64.7177 20.6571C65.4119 20.6571 65.9441 20.8793 66.3144 21.3236C66.6939 21.7586 66.8836 22.3881 66.8836 23.2119V26.4747C66.8836 26.845 66.9484 27.1041 67.078 27.2522C67.2076 27.3911 67.4436 27.4651 67.7861 27.4744V28.0159C67.6288 28.0066 67.3835 27.9974 67.0503 27.9881C66.717 27.9696 66.3884 27.9603 66.0645 27.9603C65.7312 27.9603 65.398 27.9696 65.0648 27.9881C64.7316 27.9974 64.477 28.0066 64.3011 28.0159ZM72.0674 28.0159V27.4744C72.5951 27.4651 72.9607 27.3911 73.1643 27.2522C73.368 27.1134 73.4698 26.8542 73.4698 26.4747V22.6148C73.4698 22.1891 73.368 21.8836 73.1643 21.6985C72.9607 21.5041 72.5951 21.4023 72.0674 21.393V20.8515C72.2526 20.8608 72.4423 20.87 72.6367 20.8793C72.8311 20.8885 73.0255 20.8932 73.2198 20.8932C73.5901 20.8932 73.9372 20.8793 74.2612 20.8515C74.5944 20.8145 74.8952 20.7636 75.1637 20.6988V26.4747C75.1637 26.8542 75.2655 27.1134 75.4691 27.2522C75.682 27.3911 76.0523 27.4651 76.5799 27.4744V28.0159C76.441 28.0066 76.2466 28.002 75.9967 28.002C75.7561 27.9927 75.4876 27.9835 75.1914 27.9742C74.9045 27.965 74.6175 27.9603 74.3306 27.9603C73.9048 27.9603 73.4744 27.9696 73.0394 27.9881C72.6043 27.9974 72.2803 28.0066 72.0674 28.0159ZM74.2751 19.3381C73.9881 19.3381 73.7336 19.2456 73.5114 19.0604C73.2985 18.8661 73.1921 18.6161 73.1921 18.3107C73.1921 17.996 73.2985 17.746 73.5114 17.5609C73.7336 17.3758 73.9881 17.2832 74.2751 17.2832C74.562 17.2832 74.8119 17.3758 75.0248 17.5609C75.247 17.746 75.358 17.996 75.358 18.3107C75.358 18.6161 75.247 18.8661 75.0248 19.0604C74.8119 19.2456 74.562 19.3381 74.2751 19.3381ZM80.9985 28.0159V27.4744C81.3688 27.4651 81.6187 27.3911 81.7483 27.2522C81.8871 27.1041 81.9565 26.845 81.9565 26.4747V23.1008C81.9565 22.5639 81.8501 22.1613 81.6372 21.8929C81.4243 21.6244 81.1096 21.4902 80.6931 21.4902C80.3598 21.4902 80.0497 21.5828 79.7628 21.7679C79.4759 21.953 79.2259 22.2261 79.013 22.5871V21.9762C79.2445 21.5596 79.5638 21.2357 79.9711 21.0043C80.3876 20.7728 80.855 20.6571 81.3734 20.6571C82.1046 20.6571 82.6646 20.8793 83.0534 21.3236C83.4514 21.7679 83.6504 22.4066 83.6504 23.2396V26.4747C83.6504 26.845 83.7523 27.1041 83.9559 27.2522C84.1595 27.3911 84.5298 27.4651 85.0666 27.4744V28.0159C84.9278 28.0066 84.7334 28.002 84.4835 28.002C84.2336 27.9927 83.9651 27.9835 83.6782 27.9742C83.3913 27.965 83.1089 27.9603 82.8313 27.9603C82.4795 27.9603 82.1278 27.9696 81.776 27.9881C81.4336 27.9974 81.1744 28.0066 80.9985 28.0159ZM75.9862 28.0159V27.4744C76.5139 27.4651 76.8795 27.3911 77.0831 27.2522C77.2868 27.1041 77.3886 26.845 77.3886 26.4747V22.6148C77.3886 22.1705 77.2821 21.8605 77.0692 21.6846C76.8656 21.4995 76.5046 21.4023 75.9862 21.393V20.8515C76.1806 20.8608 76.375 20.87 76.5694 20.8793C76.7638 20.8885 76.9628 20.8932 77.1664 20.8932C77.5274 20.8932 77.8653 20.8793 78.18 20.8515C78.504 20.8145 78.8048 20.7636 79.0825 20.6988V26.4747C79.0825 26.845 79.1519 27.1041 79.2907 27.2522C79.4296 27.3911 79.6795 27.4651 80.0405 27.4744V28.0159C79.8369 28.0066 79.5731 27.9974 79.2491 27.9881C78.9251 27.9696 78.5919 27.9603 78.2494 27.9603C77.8514 27.9603 77.4395 27.9696 77.0137 27.9881C76.5972 27.9974 76.2547 28.0066 75.9862 28.0159ZM87.3932 31.3342C86.4398 31.3342 85.69 31.1723 85.1439 30.8483C84.6071 30.5243 84.3386 30.0985 84.3386 29.5709C84.3386 29.1451 84.5006 28.7656 84.8246 28.4324C85.1578 28.1084 85.6391 27.8354 86.2686 27.6132L86.6434 27.8354C86.375 27.9742 86.1621 28.1732 86.0047 28.4324C85.8566 28.7008 85.7826 28.9924 85.7826 29.3071C85.7826 29.7884 85.9492 30.1587 86.2824 30.4179C86.6157 30.677 87.0831 30.8066 87.6848 30.8066C88.1568 30.8066 88.5734 30.728 88.9344 30.5706C89.3046 30.4132 89.5915 30.1957 89.7952 29.918C90.0081 29.6496 90.1145 29.3395 90.1145 28.9878C90.1145 28.6638 90.0081 28.4185 89.7952 28.2519C89.5823 28.0853 89.2676 28.002 88.851 28.002H87.3932C86.81 28.002 86.3472 27.8909 86.0047 27.6688C85.6623 27.4374 85.491 27.1319 85.491 26.7524C85.491 26.4469 85.5975 26.1646 85.8104 25.9054C86.0233 25.6463 86.3426 25.401 86.7684 25.1696L87.2405 25.2251C87.0646 25.3454 86.935 25.4658 86.8517 25.5861C86.7684 25.7064 86.7267 25.836 86.7267 25.9749C86.7267 26.16 86.8054 26.2988 86.9628 26.3914C87.1201 26.484 87.3423 26.5302 87.6292 26.5302H89.1704C89.9479 26.5302 90.5403 26.6922 90.9476 27.0162C91.3641 27.3309 91.5724 27.7937 91.5724 28.4046C91.5724 28.9785 91.3919 29.483 91.0309 29.918C90.6792 30.3623 90.1886 30.7094 89.5592 30.9594C88.939 31.2093 88.217 31.3342 87.3932 31.3342ZM87.6292 25.3084C86.7499 25.3084 86.0603 25.1048 85.5604 24.6975C85.0606 24.281 84.8107 23.7071 84.8107 22.9758C84.8107 22.2538 85.0606 21.6892 85.5604 21.2819C86.0603 20.8654 86.7452 20.6571 87.6153 20.6571C88.4947 20.6571 89.1796 20.8608 89.6702 21.2681C90.1608 21.6753 90.4061 22.2446 90.4061 22.9758C90.4061 23.7071 90.1608 24.281 89.6702 24.6975C89.1796 25.1048 88.4993 25.3084 87.6292 25.3084ZM87.6292 24.7808C88.0272 24.7808 88.3234 24.6327 88.5178 24.3365C88.7215 24.0403 88.8233 23.5867 88.8233 22.9758C88.8233 22.3649 88.7215 21.9114 88.5178 21.6152C88.3234 21.319 88.0272 21.1709 87.6292 21.1709C87.2405 21.1709 86.9443 21.319 86.7406 21.6152C86.5462 21.9114 86.449 22.3649 86.449 22.9758C86.449 23.5867 86.5462 24.0403 86.7406 24.3365C86.935 24.6327 87.2312 24.7808 87.6292 24.7808ZM91.6557 22.5315C91.4706 22.5315 91.3317 22.476 91.2392 22.3649C91.1559 22.2446 91.0911 22.1057 91.0448 21.9484C90.9985 21.791 90.9476 21.6522 90.8921 21.5319C90.8458 21.4115 90.7717 21.3514 90.6699 21.3514C90.6051 21.3514 90.5218 21.3838 90.42 21.4486C90.3182 21.5041 90.2117 21.5874 90.1006 21.6985C89.9896 21.8095 89.8924 21.9438 89.8091 22.1011L89.5592 21.6985C89.7535 21.393 90.0127 21.1431 90.3367 20.9487C90.6699 20.7543 91.0031 20.6571 91.3364 20.6571C91.6326 20.6571 91.8686 20.7451 92.0445 20.9209C92.2203 21.0876 92.3083 21.3282 92.3083 21.6429C92.3083 21.9114 92.2481 22.1289 92.1278 22.2955C92.0167 22.4529 91.8593 22.5315 91.6557 22.5315ZM96.0185 28.2103C95.5279 28.2103 95.0975 28.1131 94.7272 27.9187C94.3662 27.715 94.1071 27.479 93.9497 27.2106L94.0885 26.7246C94.2089 26.9653 94.3986 27.1643 94.6578 27.3216C94.917 27.4697 95.2178 27.5438 95.5603 27.5438C96.1897 27.5438 96.6664 27.28 96.9904 26.7524C97.3144 26.2248 97.4763 25.4426 97.4763 24.4059C97.4763 23.4525 97.3329 22.7213 97.0459 22.2122C96.759 21.6938 96.3471 21.4347 95.8102 21.4347C95.4492 21.4347 95.1067 21.5457 94.7828 21.7679C94.4681 21.99 94.2505 22.2816 94.1302 22.6426L94.0469 22.2677C94.195 21.7864 94.4819 21.3976 94.9077 21.1014C95.3428 20.8052 95.8426 20.6571 96.4072 20.6571C96.9996 20.6571 97.5087 20.8099 97.9345 21.1153C98.3603 21.4115 98.6889 21.8373 98.9203 22.3927C99.1517 22.9388 99.2674 23.5867 99.2674 24.3365C99.2674 25.1418 99.1332 25.836 98.8648 26.4192C98.6056 26.9931 98.2307 27.4374 97.7401 27.7521C97.2588 28.0575 96.6849 28.2103 96.0185 28.2103ZM92.478 28.238L92.0892 27.7937C92.2095 27.6734 92.3021 27.5531 92.3669 27.4327C92.4317 27.3124 92.4733 27.1689 92.4918 27.0023C92.5196 26.8357 92.5335 26.6367 92.5335 26.4053V19.0604C92.5335 18.6346 92.4317 18.3292 92.228 18.1441C92.0244 17.9497 91.6588 17.8479 91.1312 17.8386V17.2971C91.307 17.3064 91.4922 17.3156 91.6865 17.3249C91.8809 17.3341 92.0707 17.3388 92.2558 17.3388C92.6446 17.3388 93.0009 17.3249 93.3249 17.2971C93.6489 17.2601 93.9497 17.2092 94.2274 17.1444V27.4188C94.0238 27.4466 93.8109 27.4975 93.5887 27.5716C93.3758 27.6456 93.1722 27.7428 92.9778 27.8631C92.7927 27.9742 92.6261 28.0992 92.478 28.238ZM99.1924 28.0159V27.4744C99.72 27.4651 100.086 27.3911 100.289 27.2522C100.493 27.1134 100.595 26.8542 100.595 26.4747V22.6148C100.595 22.1891 100.493 21.8836 100.289 21.6985C100.086 21.5041 99.72 21.4023 99.1924 21.393V20.8515C99.3775 20.8608 99.5673 20.87 99.7617 20.8793C99.956 20.8885 100.15 20.8932 100.345 20.8932C100.715 20.8932 101.062 20.8793 101.386 20.8515C101.719 20.8145 102.02 20.7636 102.289 20.6988V26.4747C102.289 26.8542 102.39 27.1134 102.594 27.2522C102.807 27.3911 103.177 27.4651 103.705 27.4744V28.0159C103.566 28.0066 103.372 28.002 103.122 28.002C102.881 27.9927 102.613 27.9835 102.316 27.9742C102.029 27.965 101.743 27.9603 101.456 27.9603C101.03 27.9603 100.599 27.9696 100.164 27.9881C99.7293 27.9974 99.4053 28.0066 99.1924 28.0159ZM101.4 19.3381C101.113 19.3381 100.859 19.2456 100.636 19.0604C100.423 18.8661 100.317 18.6161 100.317 18.3107C100.317 17.996 100.423 17.746 100.636 17.5609C100.859 17.3758 101.113 17.2832 101.4 17.2832C101.687 17.2832 101.937 17.3758 102.15 17.5609C102.372 17.746 102.483 17.996 102.483 18.3107C102.483 18.6161 102.372 18.8661 102.15 19.0604C101.937 19.2456 101.687 19.3381 101.4 19.3381ZM103.111 28.0159V27.4744C103.648 27.4651 104.014 27.3911 104.208 27.2522C104.412 27.1041 104.514 26.845 104.514 26.4747V22.6148C104.514 22.1798 104.407 21.8697 104.194 21.6846C103.981 21.4995 103.62 21.4023 103.111 21.393V20.8515C103.343 20.8608 103.551 20.87 103.736 20.8793C103.921 20.8885 104.12 20.8932 104.333 20.8932C105.037 20.8932 105.661 20.8284 106.207 20.6988V26.3775C106.207 26.7755 106.342 27.0578 106.61 27.2245C106.879 27.3818 107.346 27.4651 108.012 27.4744V28.0159C107.846 28.0066 107.614 28.002 107.318 28.002C107.031 27.9927 106.717 27.9835 106.374 27.9742C106.041 27.965 105.717 27.9603 105.402 27.9603C104.939 27.9603 104.495 27.9696 104.069 27.9881C103.643 27.9974 103.324 28.0066 103.111 28.0159ZM108.665 23.2952C108.443 23.2952 108.262 23.235 108.123 23.1147C107.994 22.9943 107.929 22.8324 107.929 22.6287C107.929 22.4991 107.952 22.3834 107.999 22.2816C108.054 22.1798 108.105 22.0826 108.151 21.99C108.198 21.8975 108.221 21.8049 108.221 21.7124C108.221 21.518 108.082 21.4208 107.804 21.4208C107.6 21.4208 107.388 21.4717 107.165 21.5735C106.953 21.6753 106.754 21.8142 106.568 21.99C106.393 22.1567 106.258 22.351 106.166 22.5732L106.138 21.99C106.369 21.5735 106.675 21.2495 107.054 21.0181C107.443 20.7775 107.85 20.6571 108.276 20.6571C108.711 20.6571 109.054 20.7821 109.304 21.032C109.563 21.2819 109.692 21.6244 109.692 22.0595C109.692 22.4297 109.595 22.7305 109.401 22.962C109.216 23.1841 108.97 23.2952 108.665 23.2952ZM114.403 28.1686V19.0604C114.403 18.6254 114.297 18.3153 114.084 18.1302C113.871 17.9451 113.505 17.8479 112.987 17.8386V17.2971C113.191 17.3064 113.385 17.3156 113.57 17.3249C113.765 17.3341 113.968 17.3388 114.181 17.3388C114.533 17.3388 114.871 17.3249 115.195 17.2971C115.519 17.2601 115.815 17.2092 116.083 17.1444V26.2526C116.083 26.6783 116.19 26.9884 116.403 27.1828C116.616 27.3679 116.981 27.4651 117.499 27.4744V28.0159C117.305 27.9974 117.111 27.9881 116.916 27.9881C116.722 27.9788 116.518 27.9742 116.305 27.9742C115.963 27.9742 115.63 27.9881 115.306 28.0159C114.982 28.0529 114.681 28.1038 114.403 28.1686ZM112.293 28.2103C111.691 28.2103 111.168 28.0622 110.724 27.766C110.289 27.4605 109.951 27.0301 109.71 26.4747C109.479 25.9193 109.363 25.2621 109.363 24.5031C109.363 23.6978 109.493 23.0082 109.752 22.4343C110.011 21.8605 110.386 21.4208 110.877 21.1153C111.367 20.8099 111.946 20.6571 112.612 20.6571C113.121 20.6571 113.547 20.7543 113.89 20.9487C114.241 21.1431 114.482 21.3884 114.612 21.6846L114.514 22.1705C114.403 21.9206 114.218 21.717 113.959 21.5596C113.709 21.4023 113.408 21.3236 113.056 21.3236C112.436 21.3236 111.96 21.5874 111.626 22.115C111.302 22.6426 111.14 23.4109 111.14 24.4198C111.14 25.3917 111.289 26.1368 111.585 26.6552C111.89 27.1643 112.33 27.4188 112.904 27.4188C113.274 27.4188 113.598 27.2985 113.876 27.0578C114.163 26.8079 114.371 26.4608 114.5 26.0165L114.57 26.5302C114.422 27.0671 114.149 27.4836 113.751 27.7798C113.362 28.0668 112.876 28.2103 112.293 28.2103ZM125.708 28.0159V27.4744C126.115 27.4559 126.416 27.4188 126.61 27.3633C126.805 27.2985 126.929 27.1874 126.985 27.0301C127.05 26.8635 127.082 26.6135 127.082 26.2803V19.9213C127.082 19.588 127.05 19.3428 126.985 19.1854C126.929 19.0188 126.805 18.9031 126.61 18.8383C126.416 18.7735 126.115 18.7365 125.708 18.7272V18.1857C125.948 18.195 126.268 18.2042 126.666 18.2135C127.073 18.2227 127.522 18.2274 128.012 18.2274C128.559 18.2274 129.04 18.2227 129.456 18.2135C129.882 18.2042 130.215 18.195 130.456 18.1857V18.7272C130.003 18.7365 129.665 18.7735 129.443 18.8383C129.23 18.9031 129.086 19.0188 129.012 19.1854C128.947 19.3428 128.915 19.588 128.915 19.9213V26.2803C128.915 26.6135 128.947 26.8635 129.012 27.0301C129.086 27.1874 129.23 27.2985 129.443 27.3633C129.665 27.4188 130.003 27.4559 130.456 27.4744V28.0159C130.215 27.9974 129.887 27.9881 129.47 27.9881C129.054 27.9788 128.568 27.9742 128.012 27.9742C127.522 27.9742 127.073 27.9788 126.666 27.9881C126.268 27.9881 125.948 27.9974 125.708 28.0159ZM119.321 28.0159V27.4744C119.774 27.4559 120.108 27.4188 120.32 27.3633C120.543 27.2985 120.686 27.1874 120.751 27.0301C120.825 26.8635 120.862 26.6135 120.862 26.2803V19.9213C120.862 19.588 120.825 19.3428 120.751 19.1854C120.686 19.0188 120.543 18.9031 120.32 18.8383C120.108 18.7735 119.774 18.7365 119.321 18.7272V18.1857C119.571 18.195 119.909 18.2042 120.334 18.2135C120.76 18.2227 121.251 18.2274 121.806 18.2274C122.287 18.2274 122.727 18.2227 123.125 18.2135C123.523 18.2042 123.838 18.195 124.069 18.1857V18.7272C123.662 18.7365 123.361 18.7735 123.167 18.8383C122.972 18.9031 122.843 19.0188 122.778 19.1854C122.722 19.3428 122.695 19.588 122.695 19.9213V26.2803C122.695 26.6043 122.722 26.8496 122.778 27.0162C122.843 27.1828 122.972 27.2985 123.167 27.3633C123.37 27.4188 123.671 27.4559 124.069 27.4744V28.0159C123.829 27.9974 123.509 27.9881 123.111 27.9881C122.713 27.9788 122.274 27.9742 121.792 27.9742C121.237 27.9742 120.746 27.9788 120.32 27.9881C119.904 27.9881 119.571 27.9974 119.321 28.0159ZM121.973 23.3368V22.8092H127.804V23.3368H121.973ZM136.067 28.0159V27.4744C136.632 27.4559 136.983 27.3633 137.122 27.1967C137.261 27.0208 137.192 26.7478 136.914 26.3775L131.943 19.6158C131.703 19.2918 131.467 19.0651 131.235 18.9355C131.004 18.8059 130.675 18.7365 130.249 18.7272V18.1857C130.564 18.195 130.925 18.2042 131.332 18.2135C131.74 18.2227 132.175 18.2274 132.638 18.2274C133.193 18.2274 133.67 18.2227 134.068 18.2135C134.475 18.2042 134.808 18.195 135.067 18.1857V18.7272C134.521 18.7457 134.179 18.8429 134.04 19.0188C133.901 19.1854 133.97 19.4538 134.248 19.8241L139.219 26.5858C139.45 26.9097 139.686 27.1365 139.927 27.2661C140.167 27.3864 140.496 27.4559 140.913 27.4744V28.0159C140.589 28.0066 140.228 27.9974 139.83 27.9881C139.432 27.9788 138.997 27.9742 138.524 27.9742C137.969 27.9742 137.488 27.9788 137.081 27.9881C136.673 27.9881 136.335 27.9974 136.067 28.0159ZM130.222 28.0159V27.4883C130.527 27.4327 130.805 27.3494 131.055 27.2383C131.314 27.1273 131.564 26.9699 131.804 26.7663C132.045 26.5626 132.295 26.2942 132.554 25.961L134.859 23.0453L135.276 23.3646L133.554 25.5861C133.248 25.9749 133.068 26.3081 133.012 26.5858C132.966 26.8542 133.049 27.0671 133.262 27.2245C133.484 27.3726 133.832 27.4605 134.304 27.4883V28.0159C134.035 27.9974 133.711 27.9881 133.332 27.9881C132.952 27.9788 132.536 27.9742 132.082 27.9742C131.749 27.9742 131.434 27.9788 131.138 27.9881C130.842 27.9881 130.536 27.9974 130.222 28.0159ZM135.914 22.9897L135.442 22.7259L137.122 20.5461C137.418 20.1758 137.59 19.8611 137.636 19.6019C137.691 19.3335 137.617 19.1252 137.414 18.9771C137.219 18.829 136.9 18.7411 136.456 18.7133V18.1857C136.78 18.195 137.113 18.2042 137.455 18.2135C137.807 18.2227 138.168 18.2274 138.538 18.2274C138.881 18.2274 139.196 18.2227 139.483 18.2135C139.769 18.2042 140.075 18.195 140.399 18.1857V18.7133C140.084 18.7689 139.797 18.8522 139.538 18.9632C139.288 19.0743 139.043 19.2317 138.802 19.4353C138.562 19.639 138.316 19.9074 138.066 20.2406L135.914 22.9897ZM140.407 28.0159V27.4744C140.861 27.4559 141.194 27.4188 141.407 27.3633C141.629 27.2985 141.772 27.1874 141.837 27.0301C141.911 26.8635 141.948 26.6135 141.948 26.2803V19.9213C141.948 19.588 141.911 19.3428 141.837 19.1854C141.772 19.0188 141.629 18.9031 141.407 18.8383C141.194 18.7735 140.861 18.7365 140.407 18.7272V18.1857C140.685 18.195 141.018 18.2042 141.407 18.2135C141.805 18.2135 142.286 18.2135 142.851 18.2135C143.11 18.2135 143.374 18.2135 143.642 18.2135C143.911 18.2042 144.161 18.1996 144.392 18.1996C144.633 18.1903 144.832 18.1857 144.989 18.1857C146.822 18.1857 148.206 18.5837 149.14 19.3798C150.075 20.1758 150.543 21.3467 150.543 22.8925C150.543 23.9663 150.321 24.8873 149.876 25.6555C149.432 26.4145 148.793 26.9977 147.96 27.405C147.127 27.8122 146.123 28.0159 144.947 28.0159C144.707 28.0159 144.415 28.0112 144.073 28.002C143.739 27.9835 143.337 27.9742 142.865 27.9742C142.356 27.9742 141.884 27.9788 141.449 27.9881C141.013 27.9974 140.666 28.0066 140.407 28.0159ZM144.933 27.4883C146.211 27.4883 147.146 27.1365 147.738 26.433C148.331 25.7203 148.627 24.6049 148.627 23.0869C148.627 21.5504 148.331 20.4396 147.738 19.7547C147.155 19.0604 146.215 18.7133 144.92 18.7133H143.781V26.3081C143.781 26.6413 143.809 26.8912 143.864 27.0578C143.929 27.2245 144.04 27.3402 144.198 27.405C144.364 27.4605 144.61 27.4883 144.933 27.4883Z" fill="#111827"/>
<path d="M16.1138 24.7054L15.9659 26.265C18.297 21.8389 16.558 16.3613 12.1008 14.0903L8.67683 12.3458C6.98029 11.4814 5.10327 11.0308 3.19922 11.0308C5.09948 13.846 7.68029 16.1353 10.702 17.6863L12.1574 18.4333C14.7488 19.3814 16.3743 21.9584 16.1138 24.7054Z" fill="url(#paint0_linear_257_1420)" stroke="#5AB9A6" stroke-width="0.107283"/>
<path d="M15.8598 26.3184L12.8022 22.4026C10.6066 24.8107 8.90792 27.6284 7.80344 30.6943L6.36523 34.6865L7.65261 32.8114C8.42836 31.6815 9.4604 30.7512 10.6644 30.0964C11.4801 29.6527 12.2557 29.1389 12.9822 28.5606L14.5188 27.3376L15.8598 26.3184Z" fill="url(#paint1_linear_257_1420)" stroke="#4D3A45" stroke-width="0.0536417"/>
<path d="M12.8024 22.3492L15.86 26.2114C16.8191 23.4268 15.6213 20.3571 13.0297 18.9581L11.4614 18.1115C8.04006 16.6452 5.13853 14.1754 3.14691 11.0308L1.9668 10.8699L2.40876 11.9374C4.35857 16.6469 8.09628 20.3912 12.8024 22.3492Z" fill="url(#paint2_linear_257_1420)" stroke="#5AB9A6" stroke-width="0.107283"/>
<path d="M11.8356 29.4297L9.55519 30.8258C9.32407 30.9673 9.11173 31.1374 8.92318 31.3321L8.36025 31.9131C7.81748 32.4734 7.32934 33.0841 6.90245 33.737C6.12757 34.9222 5.67175 36.2872 5.57909 37.7001L5.50586 38.817L5.76049 38.5929C7.36031 37.1851 8.64081 35.4516 9.51622 33.5086C10.0959 32.2221 10.7841 30.9874 11.5736 29.8178L11.8356 29.4297Z" fill="url(#paint3_linear_257_1420)" stroke="#4D3A45" stroke-width="0.0536417"/>
<path d="M11.5674 9.63607L1 0.999756L1.03541 3.07147C1.08256 5.82947 1.82697 8.53067 3.19931 10.9235L4.48004 11.1681C6.78995 11.6093 9.00113 12.4643 11.007 13.6918L13.6556 15.3125C14.6414 15.9158 15.4477 16.7722 15.9904 17.7926C17.1726 20.0151 17.3811 22.628 16.5663 25.0098L16.4488 25.3531L17.6243 23.1589C17.9102 22.6251 18.08 22.0369 18.1224 21.4328L18.2726 19.2916C18.1359 16.5575 16.8561 14.0069 14.7461 12.263L11.5674 9.63607Z" fill="url(#paint4_linear_257_1420)" stroke="#5AB9A6" stroke-width="0.0536417"/>
<path d="M23.2523 8.74204L27.6596 9.26054L25.8058 9.74566C23.5846 10.3269 22.1418 12.4688 22.4378 14.7457C22.5569 15.6623 22.5539 16.5907 22.4287 17.5065L22.0313 20.4139C21.7519 22.4577 20.7449 24.3323 19.1951 25.6936C18.1588 26.6039 16.9708 27.3251 15.6851 27.8244L12.1035 29.2153L16.9791 25.4715C19.4661 23.5618 20.5049 20.3078 19.5843 17.3103L18.6487 14.2638C17.7387 11.3008 20.1739 8.37987 23.2523 8.74204Z" fill="url(#paint5_linear_257_1420)" stroke="#FCC46B" stroke-width="0.0536417"/>
<path d="M17.1922 24.0543L16.0195 26.1577C19.1991 24.4744 20.7445 20.7776 19.7089 17.3322L18.7016 13.9811C18.2212 10.9385 20.8167 8.29654 23.8674 8.72297L27.7134 9.26059L34.3113 8.2414L25.3532 8.40233L23.4402 7.60864C21.5278 6.81522 19.3298 7.18983 17.7883 8.57193C17.402 8.91822 17.1088 9.35583 16.9353 9.84473L16.7069 10.4884C16.2728 11.7117 16.4228 13.0665 17.1139 14.1653L18.1116 15.7512C18.9349 18.5299 18.6034 21.5231 17.1922 24.0543Z" fill="url(#paint6_linear_257_1420)" stroke="#FCC46B" stroke-width="0.0536417"/>
<defs>
<linearGradient id="paint0_linear_257_1420" x1="6.84685" y1="12.4791" x2="16.8242" y2="25.2994" gradientUnits="userSpaceOnUse">
<stop stop-color="#A2DECF"/>
<stop offset="1" stop-color="#429485"/>
</linearGradient>
<linearGradient id="paint1_linear_257_1420" x1="13.5532" y1="24.6019" x2="7.38443" y2="32.4872" gradientUnits="userSpaceOnUse">
<stop stop-color="#4D3A45"/>
<stop offset="1" stop-color="#8E6F80"/>
</linearGradient>
<linearGradient id="paint2_linear_257_1420" x1="2.82506" y1="11.6745" x2="15.9136" y2="24.8704" gradientUnits="userSpaceOnUse">
<stop stop-color="#2D6F64"/>
<stop offset="1" stop-color="#1D4A43"/>
</linearGradient>
<linearGradient id="paint3_linear_257_1420" x1="11.1382" y1="30.0197" x2="5.82771" y2="38.1196" gradientUnits="userSpaceOnUse">
<stop stop-color="#4D3A45"/>
<stop offset="1" stop-color="#8E6F80"/>
</linearGradient>
<linearGradient id="paint4_linear_257_1420" x1="1.48277" y1="2.07259" x2="17.2534" y2="23.8511" gradientUnits="userSpaceOnUse">
<stop stop-color="#429485"/>
<stop offset="1" stop-color="#1D4A43"/>
</linearGradient>
<linearGradient id="paint5_linear_257_1420" x1="21.5981" y1="8.93869" x2="17.3604" y2="27.0159" gradientUnits="userSpaceOnUse">
<stop stop-color="#FEE1A3"/>
<stop offset="1" stop-color="#FCC46B"/>
</linearGradient>
<linearGradient id="paint6_linear_257_1420" x1="30.3955" y1="8.40233" x2="18.1116" y2="24.173" gradientUnits="userSpaceOnUse">
<stop stop-color="#FEEBC6"/>
<stop offset="0.510418" stop-color="#FDD587"/>
<stop offset="1" stop-color="#FDD587"/>
</linearGradient>
</defs>
</svg>
